<svg width="151" height="72" viewBox="0 0 151 72" fill="none" xmlns="http://www.w3.org/2000/svg">
<path d="M40.4983 17.1583C40.4983 14.6097 42.439 12.6014 45.3264 12.6014C48.1664 12.6014 50.1071 14.6097 50.1071 17.1583C50.1071 19.6551 48.1664 21.6635 45.3264 21.6635C42.439 21.6635 40.4983 19.6551 40.4983 17.1583ZM41.2476 24.5067H49.3428V51.8376H41.2551L41.2476 24.5067Z" fill="white"/>
<path d="M56.7142 31.6801H53.3098V24.7989H56.7142V18.2067H65.2741V24.7989H70.8785V31.6801H65.2741V42.535C65.2741 44.1332 65.974 44.8134 67.8756 44.8134H70.9261V51.8377H66.5761C60.7657 51.8377 56.7142 49.4647 56.7142 42.4378V31.6801Z" fill="white"/>
<path d="M74.9298 15.0036H83.3189V27.7973C84.9858 25.4072 87.9781 23.7656 91.7572 23.7656C97.9849 23.7656 102.155 28.1466 102.155 35.6111V51.8376H93.8253V36.7562C93.8253 32.9741 91.7546 30.8834 88.576 30.8834C85.3974 30.8834 83.3267 32.9846 83.3267 36.7562V51.8376H74.9298V15.0036Z" fill="white"/>
<path d="M107.76 17.1583C107.76 14.6097 109.862 12.6014 112.991 12.6014C116.067 12.6014 118.17 14.6097 118.17 17.1583C118.17 19.6551 116.067 21.6635 112.991 21.6635C109.862 21.6635 107.76 19.6551 107.76 17.1583ZM108.572 24.5067H117.342V51.8376H108.58L108.572 24.5067Z" fill="white"/>
<path d="M122.974 15.0036H131.395V35.3613L139.712 24.069H150.108L138.672 38.0032L150.199 51.8376H139.769L131.395 40.1934V51.8376H122.974V15.0036Z" fill="white"/>
<path d="M5 63.0676H1.21443V66.4088H4.59792V67.4853H1.21443V70.9235H5V72H0V62H5V63.0676Z" fill="white"/>
<path d="M17 62V72H15.839L11.1636 64.0441V72H10V62H11.1636L15.839 69.9412V62H17Z" fill="white"/>
<path d="M30.6975 64.9493H29.1228C28.5742 63.8123 27.4739 63.1486 26.0593 63.1486C23.933 63.1486 22.3434 64.6406 22.3434 67.0041C22.3434 69.3676 23.933 70.8422 26.0593 70.8422C28.0374 70.8422 29.3986 69.6042 29.6002 67.6678H25.5819V66.626H31V67.6101C30.9057 68.8164 30.342 69.9422 29.4239 70.7579C28.5058 71.5736 27.3024 72.0176 26.0593 71.9995C23.2242 71.9995 21 69.9447 21 67.007C21 64.0692 23.2242 62 26.0593 62C28.1827 61.9971 29.9472 63.0649 30.6975 64.9493Z" fill="white"/>
<path d="M35 62H36V72H35V62Z" fill="white"/>
<path d="M49 62V72H47.8386L43.1614 64.0441V72H42V62H43.1614L47.8386 69.9412V62H49Z" fill="white"/>
<path d="M60 63.0676H56.2124V66.4088H59.6004V67.4853H56.2124V70.9235H60V72H55V62H60V63.0676Z" fill="white"/>
<path d="M70 63.0676H65.4573V66.4088H69.5306V67.4853H65.4573V70.9235H70V72H64V62H70V63.0676Z" fill="white"/>
<path d="M77.3099 62.0059C79.7237 62.0059 80.8672 63.3088 80.8672 64.9471C80.8672 66.2235 80.1461 67.4412 78.4263 67.8147L81 72H79.3978L76.9569 67.9147H75.3397V72H74V62L77.3099 62.0059ZM77.3099 63.0794H75.3397V66.8647H77.3099C78.8185 66.8647 79.4853 66.0618 79.4853 64.9441C79.4853 63.8265 78.8397 63.0794 77.3099 63.0794Z" fill="white"/>
<path d="M86 62H87V72H86V62Z" fill="white"/>
<path d="M99 62V72H97.8386L93.1614 64.0441V72H92V62H93.1614L97.8386 69.9412V62H99Z" fill="white"/>
<path d="M111.763 64.9494H110.503C110.065 63.8123 109.187 63.1486 108.053 63.1486C106.355 63.1486 105.082 64.6406 105.082 67.0041C105.082 69.3676 106.355 70.8423 108.053 70.8423C109.638 70.8423 110.724 69.6042 110.885 67.6678H107.662V66.626H112V67.6101C111.923 68.8164 111.472 69.9419 110.737 70.7574C110.003 71.5728 109.041 72.017 108.046 71.9995C105.781 71.9995 104 69.9448 104 67.007C104 64.0692 105.781 62 108.046 62C109.742 61.9971 111.153 63.0649 111.763 64.9494Z" fill="white"/>
<path d="M125.359 62.0088V70.9382H129V72H124V62L125.359 62.0088Z" fill="white"/>
<path d="M132 62H138V63.0598H135.584V72H134.429V63.0598H132V62Z" fill="white"/>
<path d="M151 67.0265C151 70.1206 148.839 72 145.338 72H142V62H145.328C148.839 62.0088 151 63.9294 151 67.0265ZM145.338 70.9235C148.128 70.9235 149.584 69.4529 149.584 67.0265C149.584 64.6 148.128 63.0676 145.338 63.0676H143.406V70.9235H145.338Z" fill="white"/>
<g clip-path="url(#clip0)">
<path d="M26.6199 26.6425C25.5402 27.2969 24.247 27.9424 22.7404 28.5788C23.387 28.9521 23.9035 29.2701 24.2891 29.5359C24.582 29.7296 24.8628 29.9415 25.1297 30.1703C25.969 31.0003 26.7206 31.9161 27.3722 32.9032C27.7743 33.5222 28.1508 34.1195 28.5018 34.6951C28.8527 35.2706 29.1765 35.8316 29.4732 36.378L30.3806 38.0739C28.3936 42.1065 27.3624 46.5504 27.3684 51.0545C27.3684 51.3699 27.3734 51.6848 27.3836 51.9992H27.3189L20.1686 38.3343C19.3466 36.7189 18.3954 35.174 17.3244 33.715C16.4184 32.493 15.5284 31.0659 14.1448 30.3439C13.756 30.1396 9.76477 29.4091 9.76477 29.8715V51.9992H9.5419C7.05296 48.3795 3.78715 45.3736 -0.012207 43.2055V27.9774C6.56004 29.1449 14.3083 27.5688 22.6864 20.0961C22.4407 20.1952 12.6455 24.1439 -0.012207 22.2468V18.8672C6.96624 20.7459 15.4463 19.6844 24.6946 11.436C24.4352 11.5405 13.6009 15.9062 -0.012207 13.2356V9.56341C7.31844 12.2148 16.5493 11.8193 26.7035 2.7628C26.432 2.87417 14.5289 7.67008 -0.012207 4.1223V0H17.3312C19.4692 0 21.3395 0.146194 22.942 0.438577C24.5445 0.730961 25.8437 1.16109 26.8397 1.72896C27.9645 2.3825 29.0134 3.16105 29.9668 4.0501C30.8766 4.90984 31.5866 5.79877 32.0967 6.71689C32.6799 7.86178 33.1504 9.06163 33.5017 10.2992C33.8224 11.4392 33.9864 12.6182 33.9893 13.8032C33.9893 15.6789 33.5509 17.5673 32.6741 19.4686C31.7684 21.415 30.5721 23.2094 29.127 24.7891C28.5317 25.3698 27.696 25.9876 26.6199 26.6425Z" fill="white"/>
</g>
<defs>
<clipPath id="clip0">
<rect width="34" height="52" fill="white"/>
</clipPath>
</defs>
</svg>
